# xmcd
#
# Track frame offsets: 
#        150
#        10530
#        23082
#        34407
#        46220
#        59180
#        70955
#        81735
#        93137
#        105885
#        118760
#        130837
#        141290
#        151575
#        161145
#        171275
#        180430
#        191980
#        204050
#        215580
#        226940
#        239350
#        250797
#        259295
#        266962
#        276635
#        285225
#
# Disc length: 3929 seconds
#
# Revision: 0
# Processed by: cddbd v1.5.1PL0 Copyright (c) Steve Scherf et al.
# Submitted via: ExactAudioCopy v0.95a5
#
DISCID=890f571b
DTITLE=Tommy Scott - Early Recordings
DYEAR=1900
DGENRE=Country
TTITLE0=Juke Jount Girl
TTITLE1=Tennnessee (remake)
TTITLE2=Freckle Faced Girl
TTITLE3=Rockin' And Rollin'
TTITLE4=You Done Me Wrong
TTITLE5=Come On Gimme Some Lovin'
TTITLE6=Free Again
TTITLE7=Gonna Paint The Town Red
TTITLE8=Santa Claus Shuffle
TTITLE9=Uncle Sammy
TTITLE10=It's You
TTITLE11=Cherokee Rose
TTITLE12=Juke Joint Girl
TTITLE13=Ain't Love Grand
TTITLE14=What Do You Know - I Love Her
TTITLE15=Just A-Diggin' And A-Diggin'
TTITLE16=Tennessee (original version)
TTITLE17=When A Man Gets The Blues
TTITLE18=Been Gone A Long Time
TTITLE19=My Little Moonbeam
TTITLE20=Alley Cat Blues
TTITLE21=Mountain Ma and Pa
TTITLE22=Nobody But You
TTITLE23=Cats and Dogs
TTITLE24=Cat Music
TTITLE25=Dance With Her Henry
TTITLE26=Jumpin' From Six To Six
EXTD=
EXTT0=
EXTT1=
EXTT2=
EXTT3=
EXTT4=
EXTT5=
EXTT6=
EXTT7=
EXTT8=
EXTT9=
EXTT10=
EXTT11=
EXTT12=
EXTT13=
EXTT14=
EXTT15=
EXTT16=
EXTT17=
EXTT18=
EXTT19=
EXTT20=
EXTT21=
EXTT22=
EXTT23=
EXTT24=
EXTT25=
EXTT26=
PLAYORDER=
